<svg width="28" height="28" viewBox="0 0 28 28" fill="none" xmlns="http://www.w3.org/2000/svg">
<path d="M3.676 5.56182C1.7951 7.8603 0.666626 10.7984 0.666626 14.0001C0.666626 17.2018 1.79513 20.14 3.67609 22.4385L8.92007 17.1945C8.33719 16.2695 7.99996 15.1742 7.99996 14.0001C7.99996 12.826 8.33716 11.7308 8.91999 10.8058L3.676 5.56182Z" fill="#022C22"/>
<path d="M5.56161 3.67619L10.8056 8.92018C11.7306 8.3373 12.8259 8.00008 14 8.00008C15.174 8.00008 16.2694 8.33731 17.1944 8.92019L22.4383 3.67621C20.1398 1.79526 17.2017 0.666748 14 0.666748C10.7982 0.666748 7.86011 1.79525 5.56161 3.67619Z" fill="#022C22"/>
<path d="M24.3239 5.56184L19.0799 10.8058C19.6628 11.7308 20 12.8261 20 14.0001C20 15.1742 19.6627 16.2695 19.0799 17.1944L24.3238 22.4384C26.2048 20.1399 27.3333 17.2018 27.3333 14.0001C27.3333 10.7984 26.2048 7.86032 24.3239 5.56184Z" fill="#022C22"/>
<path d="M22.4382 24.324L17.1942 19.08C16.2693 19.6629 15.174 20.0001 14 20.0001C12.8259 20.0001 11.7307 19.6629 10.8057 19.0801L5.56172 24.3241C7.8602 26.2049 10.7983 27.3334 14 27.3334C17.2016 27.3334 20.1397 26.2049 22.4382 24.324Z" fill="#022C22"/>
</svg>
