<svg width="48" height="48" viewBox="0 0 48 48" fill="none" xmlns="http://www.w3.org/2000/svg">
<path d="M0 8C0 3.58172 3.58172 0 8 0H40C44.4183 0 48 3.58172 48 8V40C48 44.4183 44.4183 48 40 48H8C3.58172 48 0 44.4183 0 40V8Z" fill="#BEF264"/>
<path d="M13.676 15.5618C11.7951 17.8603 10.6666 20.7984 10.6666 24.0001C10.6666 27.2018 11.7951 30.14 13.6761 32.4385L18.9201 27.1945C18.3372 26.2695 18 25.1742 18 24.0001C18 22.826 18.3372 21.7308 18.92 20.8058L13.676 15.5618Z" fill="#022C22"/>
<path d="M15.5616 13.6762L20.8056 18.9202C21.7306 18.3373 22.8259 18.0001 24 18.0001C25.174 18.0001 26.2694 18.3373 27.1943 18.9202L32.4383 13.6762C30.1398 11.7953 27.2017 10.6667 24 10.6667C20.7982 10.6667 17.8601 11.7952 15.5616 13.6762Z" fill="#022C22"/>
<path d="M34.3239 15.5618L29.0799 20.8058C29.6628 21.7308 30 22.8261 30 24.0001C30 25.1742 29.6627 26.2695 29.0799 27.1944L34.3238 32.4384C36.2048 30.1399 37.3333 27.2018 37.3333 24.0001C37.3333 20.7984 36.2048 17.8603 34.3239 15.5618Z" fill="#022C22"/>
<path d="M32.4382 34.324L27.1942 29.08C26.2693 29.6629 25.174 30.0001 24 30.0001C22.8259 30.0001 21.7307 29.6629 20.8057 29.0801L15.5617 34.3241C17.8602 36.205 20.7983 37.3334 24 37.3334C27.2016 37.3334 30.1397 36.2049 32.4382 34.324Z" fill="#022C22"/>
</svg>
