<svg width="20" height="20" viewBox="0 0 20 20" fill="none" xmlns="http://www.w3.org/2000/svg">
<path d="M8.5 10.75C8.82209 11.1806 9.23302 11.5369 9.70491 11.7947C10.1768 12.0525 10.6986 12.2058 11.235 12.2442C11.7713 12.2826 12.3097 12.2052 12.8135 12.0173C13.3173 11.8294 13.7748 11.5353 14.155 11.155L16.405 8.90497C17.0881 8.19772 17.4661 7.25046 17.4575 6.26722C17.449 5.28398 17.0546 4.34343 16.3593 3.64815C15.664 2.95287 14.7235 2.55849 13.7403 2.54995C12.757 2.5414 11.8098 2.91938 11.1025 3.60247L9.8125 4.88497" stroke="white" stroke-opacity="0.8" stroke-width="1.5" stroke-linecap="round" stroke-linejoin="round"/>
<path d="M11.4999 9.24992C11.1778 8.81933 10.7669 8.46304 10.295 8.20522C9.8231 7.9474 9.30127 7.79409 8.76492 7.75567C8.22856 7.71726 7.69022 7.79465 7.1864 7.98259C6.68258 8.17053 6.22507 8.46462 5.84491 8.84492L3.59491 11.0949C2.91181 11.8022 2.53383 12.7494 2.54238 13.7327C2.55092 14.7159 2.94531 15.6565 3.64059 16.3517C4.33587 17.047 5.27641 17.4414 6.25965 17.45C7.24289 17.4585 8.19015 17.0805 8.89741 16.3974L10.1799 15.1149" stroke="white" stroke-opacity="0.8" stroke-width="1.5" stroke-linecap="round" stroke-linejoin="round"/>
</svg>
