<svg width="198" height="40" viewBox="0 0 198 40" fill="none" xmlns="http://www.w3.org/2000/svg">
<path d="M0 9.33333C0 6.38782 2.38781 4 5.33333 4H26.6667C29.6122 4 32 6.38781 32 9.33333V30.6667C32 33.6122 29.6122 36 26.6667 36H5.33333C2.38782 36 0 33.6122 0 30.6667V9.33333Z" fill="#BEF264"/>
<rect x="15.3334" y="9.33325" width="1.33333" height="8" rx="0.666667" fill="#022C22"/>
<rect x="15.3334" y="22.6667" width="1.33333" height="8" rx="0.666667" fill="#022C22"/>
<rect x="23.0709" y="11.9861" width="1.33333" height="8" rx="0.666667" transform="rotate(45 23.0709 11.9861)" fill="#022C22"/>
<rect x="13.6429" y="21.4141" width="1.33333" height="8" rx="0.666667" transform="rotate(45 13.6429 21.4141)" fill="#022C22"/>
<rect x="18.6666" y="20.6667" width="1.33333" height="8" rx="0.666667" transform="rotate(-90 18.6666 20.6667)" fill="#022C22"/>
<rect x="5.33337" y="20.6667" width="1.33333" height="8" rx="0.666667" transform="rotate(-90 5.33337 20.6667)" fill="#022C22"/>
<rect x="17.4142" y="22.3567" width="1.33333" height="8" rx="0.666667" transform="rotate(-45 17.4142 22.3567)" fill="#022C22"/>
<rect x="7.98633" y="12.9287" width="1.33333" height="8" rx="0.666667" transform="rotate(-45 7.98633 12.9287)" fill="#022C22"/>
<path d="M50.878 31V8.6H64.35V11.48H54.014V18.136H63.326V20.952H54.014V28.12H64.414V31H50.878ZM73.7522 31L80.1522 15H83.3202L76.6322 31H73.7522ZM73.5602 31L66.9042 15H70.0082L76.4082 31H73.5602ZM92.0427 31.384C90.4854 31.384 89.1094 31.032 87.9147 30.328C86.7201 29.6027 85.7814 28.6107 85.0987 27.352C84.4161 26.0933 84.0747 24.6427 84.0747 23C84.0747 21.3573 84.4161 19.9067 85.0987 18.648C85.7814 17.3893 86.7201 16.408 87.9147 15.704C89.1307 14.9787 90.5174 14.616 92.0747 14.616C93.5468 14.616 94.8374 14.9893 95.9467 15.736C97.0561 16.4613 97.9201 17.5067 98.5387 18.872C99.1788 20.216 99.4988 21.8053 99.4988 23.64H86.5707L87.1467 23.16C87.1467 24.2907 87.3707 25.272 87.8187 26.104C88.2667 26.936 88.8747 27.576 89.6427 28.024C90.4107 28.4507 91.2854 28.664 92.2667 28.664C93.3334 28.664 94.2187 28.4187 94.9227 27.928C95.6481 27.416 96.2134 26.776 96.6187 26.008L99.2428 27.224C98.8161 28.056 98.2614 28.792 97.5787 29.432C96.8961 30.0507 96.0854 30.5307 95.1467 30.872C94.2294 31.2133 93.1947 31.384 92.0427 31.384ZM87.3387 21.72L86.7307 21.24H96.8427L96.2668 21.72C96.2668 20.7813 96.0748 19.9813 95.6908 19.32C95.3067 18.6373 94.7947 18.1253 94.1547 17.784C93.5147 17.4213 92.8001 17.24 92.0107 17.24C91.2427 17.24 90.4961 17.4213 89.7707 17.784C89.0667 18.1253 88.4801 18.6267 88.0107 19.288C87.5627 19.9493 87.3387 20.76 87.3387 21.72ZM104.038 22.392C104.038 20.664 104.369 19.256 105.03 18.168C105.691 17.08 106.545 16.2693 107.59 15.736C108.635 15.2027 109.734 14.936 110.886 14.936V17.816C109.926 17.816 109.009 17.9653 108.134 18.264C107.281 18.5413 106.577 19.0107 106.022 19.672C105.489 20.312 105.222 21.1867 105.222 22.296L104.038 22.392ZM102.182 31V15H105.222V31H102.182ZM123.93 31.384C121.669 31.384 119.653 30.8933 117.882 29.912C116.133 28.9093 114.757 27.544 113.754 25.816C112.773 24.0667 112.282 22.072 112.282 19.832C112.282 17.5493 112.773 15.544 113.754 13.816C114.757 12.0667 116.133 10.7013 117.882 9.72C119.653 8.71733 121.669 8.216 123.93 8.216C125.168 8.216 126.352 8.41867 127.482 8.824C128.634 9.208 129.669 9.752 130.586 10.456C131.525 11.1387 132.282 11.928 132.858 12.824L130.33 14.488C129.904 13.8267 129.349 13.24 128.666 12.728C127.984 12.216 127.226 11.8213 126.394 11.544C125.584 11.2453 124.762 11.096 123.93 11.096C122.288 11.096 120.826 11.4693 119.546 12.216C118.288 12.9627 117.296 13.9867 116.57 15.288C115.845 16.5893 115.482 18.104 115.482 19.832C115.482 21.5173 115.834 23.0107 116.538 24.312C117.264 25.6133 118.266 26.6373 119.546 27.384C120.848 28.1307 122.33 28.504 123.994 28.504C125.338 28.504 126.533 28.2267 127.578 27.672C128.645 27.1173 129.477 26.3387 130.074 25.336C130.693 24.3333 131.002 23.1707 131.002 21.848L134.042 21.56C134.042 23.544 133.605 25.272 132.73 26.744C131.877 28.216 130.693 29.3573 129.178 30.168C127.664 30.9787 125.914 31.384 123.93 31.384ZM125.562 22.04V19.416H134.042V21.72L132.442 22.04H125.562ZM138.742 22.392C138.742 20.664 139.072 19.256 139.734 18.168C140.395 17.08 141.248 16.2693 142.294 15.736C143.339 15.2027 144.438 14.936 145.59 14.936V17.816C144.63 17.816 143.712 17.9653 142.838 18.264C141.984 18.5413 141.28 19.0107 140.726 19.672C140.192 20.312 139.926 21.1867 139.926 22.296L138.742 22.392ZM136.886 31V15H139.926V31H136.886ZM154.794 31.384C153.237 31.384 151.861 31.032 150.666 30.328C149.471 29.6027 148.533 28.6107 147.85 27.352C147.167 26.0933 146.826 24.6427 146.826 23C146.826 21.3573 147.167 19.9067 147.85 18.648C148.533 17.3893 149.471 16.408 150.666 15.704C151.882 14.9787 153.269 14.616 154.826 14.616C156.298 14.616 157.589 14.9893 158.698 15.736C159.807 16.4613 160.671 17.5067 161.29 18.872C161.93 20.216 162.25 21.8053 162.25 23.64H149.322L149.898 23.16C149.898 24.2907 150.122 25.272 150.57 26.104C151.018 26.936 151.626 27.576 152.394 28.024C153.162 28.4507 154.037 28.664 155.018 28.664C156.085 28.664 156.97 28.4187 157.674 27.928C158.399 27.416 158.965 26.776 159.37 26.008L161.994 27.224C161.567 28.056 161.013 28.792 160.33 29.432C159.647 30.0507 158.837 30.5307 157.898 30.872C156.981 31.2133 155.946 31.384 154.794 31.384ZM150.09 21.72L149.482 21.24H159.594L159.018 21.72C159.018 20.7813 158.826 19.9813 158.442 19.32C158.058 18.6373 157.546 18.1253 156.906 17.784C156.266 17.4213 155.551 17.24 154.762 17.24C153.994 17.24 153.247 17.4213 152.522 17.784C151.818 18.1253 151.231 18.6267 150.762 19.288C150.314 19.9493 150.09 20.76 150.09 21.72ZM172.005 31.384C170.448 31.384 169.072 31.032 167.877 30.328C166.683 29.6027 165.744 28.6107 165.061 27.352C164.379 26.0933 164.037 24.6427 164.037 23C164.037 21.3573 164.379 19.9067 165.061 18.648C165.744 17.3893 166.683 16.408 167.877 15.704C169.093 14.9787 170.48 14.616 172.037 14.616C173.509 14.616 174.8 14.9893 175.909 15.736C177.019 16.4613 177.883 17.5067 178.501 18.872C179.141 20.216 179.461 21.8053 179.461 23.64H166.533L167.109 23.16C167.109 24.2907 167.333 25.272 167.781 26.104C168.229 26.936 168.837 27.576 169.605 28.024C170.373 28.4507 171.248 28.664 172.229 28.664C173.296 28.664 174.181 28.4187 174.885 27.928C175.611 27.416 176.176 26.776 176.581 26.008L179.205 27.224C178.779 28.056 178.224 28.792 177.541 29.432C176.859 30.0507 176.048 30.5307 175.109 30.872C174.192 31.2133 173.157 31.384 172.005 31.384ZM167.301 21.72L166.693 21.24H176.805L176.229 21.72C176.229 20.7813 176.037 19.9813 175.653 19.32C175.269 18.6373 174.757 18.1253 174.117 17.784C173.477 17.4213 172.763 17.24 171.973 17.24C171.205 17.24 170.459 17.4213 169.733 17.784C169.029 18.1253 168.443 18.6267 167.973 19.288C167.525 19.9493 167.301 20.76 167.301 21.72ZM182.145 31V15H184.993L185.185 17.944V31H182.145ZM193.217 31V22.808H196.257V31H193.217ZM193.217 22.808C193.217 21.3573 193.046 20.2587 192.705 19.512C192.385 18.744 191.926 18.2107 191.329 17.912C190.753 17.6133 190.081 17.4533 189.313 17.432C188.011 17.432 186.998 17.8907 186.273 18.808C185.547 19.7253 185.185 21.016 185.185 22.68H183.873C183.873 20.9947 184.118 19.5547 184.609 18.36C185.121 17.144 185.835 16.216 186.753 15.576C187.691 14.936 188.801 14.616 190.081 14.616C191.339 14.616 192.427 14.872 193.345 15.384C194.283 15.896 194.998 16.696 195.489 17.784C196.001 18.8507 196.257 20.2587 196.257 22.008V22.808H193.217Z" fill="white"/>
</svg>
